<svg version="1.1" id="Layer_1" xmlns="http://www.w3.org/2000/svg" xmlns:xlink="http://www.w3.org/1999/xlink" x="0px" y="0px"
	 width="100%" viewBox="0 0 1920 1920" enable-background="new 0 0 1920 1920" xml:space="preserve">

<path fill="#1E1917" opacity="1.000000" stroke="none" 
	d="
M922.964478,44.167534 

	C1293.066650,43.943455 1583.692749,43.949104 1874.318848,43.949104 

	C1878.980347,350.719727 1878.980347,657.417114 1878.640747,964.893921 

	C1876.529907,1017.421570 1876.000000,1027.357300 1874.968384,1037.229614 

	C1863.739380,1123.359985 1858.997803,1148.904419 1853.257935,1174.184937 

	C1804.504883,1321.030273 1793.726196,1345.927124 1781.661865,1370.127075 

	C1730.457153,1459.722046 1716.404175,1480.535278 1701.575073,1500.688965 

	C1642.175659,1574.472412 1629.694336,1587.827515 1617.183594,1601.108032 

	C1581.091919,1635.541382 1569.252930,1647.250977 1556.455566,1657.787842 

	C1464.205811,1729.066406 1428.497559,1751.228394 1391.238159,1770.632568 
	C1363.986450,1784.824829 1335.992310,1797.714233 1307.774170,1809.899292 
	C1267.659058,1827.221924 1226.047852,1840.428589 1183.651855,1850.975586 
	C1145.125366,1860.559937 1106.223022,1868.312744 1066.632935,1872.029297 




	C882.008911,1874.713989 865.939209,1873.958008 850.058960,1871.817505 
	C826.987305,1868.707764 803.892578,1865.357300 781.098511,1860.689331 
	C737.883484,1851.839355 695.410583,1840.171997 653.840454,1825.189575 
	C610.763367,1809.664307 568.878113,1791.528076 528.875610,1769.285767 
	C505.538147,1756.309448 482.516571,1742.688354 459.972260,1728.381592 
	C431.690948,1710.433838 404.781219,1690.481812 379.236664,1668.769043 
	C364.464264,1656.212524 349.397247,1643.941284 335.358368,1630.599243 
	C319.079376,1615.128418 303.508545,1598.880859 288.146790,1582.486572 
	C276.026001,1569.551025 264.065338,1556.370361 253.140533,1542.430786 
	C234.653366,1518.842041 216.221481,1495.128540 199.306412,1470.413574 
	C184.429474,1448.676270 170.634476,1426.044434 158.220596,1402.814331 
	C142.570328,1373.527588 127.450729,1343.801880 114.612984,1313.211792 
	C101.798950,1282.678101 91.162216,1251.130615 81.307915,1219.486572 
	C73.498001,1194.407349 67.273773,1168.713257 62.242657,1142.922119 
	C56.683506,1114.423950 52.790051,1085.567261 49.127998,1056.745117 
	C46.836971,1038.713867 46.323811,1020.457336 44.972645,1002.304810 
	C44.865814,1000.869690 44.443317,999.458069 44.167526,998.035522 
	C44.118244,973.652344 44.068954,949.269104 44.359188,924.106323 
	C45.128723,915.885437 45.376259,908.428223 46.025227,901.005981 
	C47.565651,883.388000 48.796867,865.721619 51.076019,848.194824 
	C53.950176,826.092468 56.600868,803.856750 61.410809,782.135315 
	C68.312263,750.968994 76.039879,719.901550 85.277435,689.355164 
	C101.123474,636.956055 121.661018,586.304504 148.039810,538.249817 
	C162.247040,512.368347 176.908066,486.660461 192.856766,461.832947 
	C206.986755,439.836639 222.407898,418.552521 238.667709,398.072357 
	C257.402954,374.474304 277.048218,351.516022 297.497986,329.388641 
	C313.383820,312.199615 330.635895,296.178009 348.146088,280.610931 
	C367.568604,263.343689 387.323425,246.311615 408.121277,230.766251 
	C432.397095,212.621277 457.511597,195.495178 483.076904,179.205612 
	C512.927734,160.185425 544.116882,143.390244 576.434875,128.829865 
	C590.659973,122.420975 604.757996,115.609253 619.362488,110.189758 
	C646.097107,100.268921 672.883606,90.309135 700.173584,82.114029 
	C727.246155,73.984215 754.749512,66.924980 782.462769,61.395496 
	C809.793945,55.942249 837.568665,52.538715 865.257019,49.110653 
	C882.968811,46.917778 900.877930,46.323811 918.695557,44.972885 
	C920.130615,44.864075 921.542053,44.443325 922.964478,44.167534 
M849.368530,1024.028687  
z"/>


<!-- Segunda parte de la N -->
<path fill="#E4101F" opacity="1.000000" stroke="none" 
	d="
M588.708984,281.796448 
	C588.708984,280.023254 588.708984,278.250092 588.708984,275.882996 
	C590.888428,275.882996 592.665710,275.882996 594.443054,275.882996 
	C677.408020,275.882965 760.372986,275.923157 843.337708,275.769073 
	C847.670898,275.761017 849.283508,277.269043 850.623535,281.113586 
	C892.371765,400.889008 934.216675,520.630737 976.083862,640.364685 
	C1008.006409,731.658447 1039.979248,822.934631 1072.023682,914.896790 
	C1072.743530,916.410400 1073.369385,917.245850 1073.978638,918.477905 
	C1077.308594,928.768555 1080.577759,938.689636 1084.015137,948.552063 
	C1098.340210,989.653748 1112.709717,1030.739868 1127.074951,1071.827759 
	C1139.027466,1106.015137 1151.008911,1140.192627 1162.955566,1174.382202 
	C1177.368164,1215.629150 1191.742798,1256.889526 1206.161377,1298.134399 
	C1218.058228,1332.165527 1230.016235,1366.175171 1241.909180,1400.207642 
	C1259.118164,1449.452881 1276.276978,1498.715942 1293.489380,1547.960205 
	C1302.259644,1573.051880 1311.145020,1598.103271 1319.881104,1623.206909 
	C1322.439575,1630.558594 1324.663208,1638.026855 1327.040283,1645.441650 
	C1309.976685,1643.638062 1292.924194,1641.717896 1275.845581,1640.069580 
	C1263.345947,1638.863159 1250.807251,1638.066040 1238.294189,1636.991455 
	C1223.967651,1635.761475 1209.653687,1634.383911 1195.326904,1633.156860 
	C1189.400024,1632.649292 1183.457397,1632.292603 1177.515625,1631.995239 
	C1163.454468,1631.291504 1149.392578,1630.588379 1135.325317,1630.025635 
	C1116.436768,1629.270142 1097.541870,1628.677002 1078.652222,1627.945679 
	C1074.201050,1627.773315 1069.747437,1626.964111 1065.318970,1627.121460 
	C1061.614990,1627.253174 1060.129517,1625.855347 1058.968018,1622.484375 
	C1047.743774,1589.910522 1036.361694,1557.390991 1024.994629,1524.866333 
	C979.637085,1395.083252 934.275879,1265.301514 888.899780,1135.524780 
	C875.990173,1098.603149 863.025818,1061.700562 850.008423,1024.104248 
	C849.288513,1022.587158 848.646851,1021.755066 848.018311,1020.524597 
	C847.625183,1018.355042 847.387329,1016.524536 846.787048,1014.821777 
	C838.945557,992.578796 830.983093,970.378174 823.187744,948.119019 
	C808.419495,905.949341 793.755737,863.743042 779.018311,821.562561 
	C767.403748,788.320251 755.725403,755.100281 744.108032,721.858948 
	C726.846130,672.466492 709.625183,623.059631 692.363098,573.667297 
	C683.321350,547.795959 674.206848,521.950134 665.164368,496.079102 
	C648.120178,447.314728 631.099426,398.542206 614.079041,349.769531 
	C606.581421,328.284454 599.135986,306.781036 591.560242,285.323608 
	C591.085815,283.979828 589.680969,282.964569 588.708984,281.796448 
z"/>
<!-- tercera parte de la N -->
<path fill="#AD0C11" opacity="1.000000" stroke="none" 
	d="
M1327.380371,1645.608398 
	C1324.663208,1638.026855 1322.439575,1630.558594 1319.881104,1623.206909 
	C1311.145020,1598.103271 1302.259644,1573.051880 1293.489380,1547.960205 
	C1276.276978,1498.715942 1259.118164,1449.452881 1241.909180,1400.207642 
	C1230.016235,1366.175171 1218.058228,1332.165527 1206.161377,1298.134399 
	C1191.742798,1256.889526 1177.368164,1215.629150 1162.955566,1174.382202 
	C1151.008911,1140.192627 1139.027466,1106.015137 1127.074951,1071.827759 
	C1112.709717,1030.739868 1098.340210,989.653748 1084.015137,948.552063 
	C1080.577759,938.689636 1077.308594,928.768555 1073.967773,918.067566 
	C1073.885132,916.449036 1073.796997,915.637329 1073.708740,914.825623 
	C1073.746948,912.493774 1073.818726,910.161865 1073.818848,907.830017 
	C1073.823975,699.687256 1073.823608,491.544464 1073.823608,283.401703 
	C1073.823608,281.114471 1073.823608,278.827240 1073.823608,276.239136 
	C1160.671265,276.239136 1246.912231,276.239136 1333.551392,276.239136 
	C1333.551392,732.670715 1333.551392,1189.010498 1333.551392,1645.775269 
	C1331.572754,1645.775269 1329.646606,1645.775269 1327.380371,1645.608398 
z"/>
<!-- Primera parte de la N -->
<path fill="#AD0C11" opacity="1.000000" stroke="none" 
	d="
M588.510254,282.249115 
	C589.680969,282.964569 591.085815,283.979828 591.560242,285.323608 
	C599.135986,306.781036 606.581421,328.284454 614.079041,349.769531 
	C631.099426,398.542206 648.120178,447.314728 665.164368,496.079102 
	C674.206848,521.950134 683.321350,547.795959 692.363098,573.667297 
	C709.625183,623.059631 726.846130,672.466492 744.108032,721.858948 
	C755.725403,755.100281 767.403748,788.320251 779.018311,821.562561 
	C793.755737,863.743042 808.419495,905.949341 823.187744,948.119019 
	C830.983093,970.378174 838.945557,992.578796 846.787048,1014.821777 
	C847.387329,1016.524536 847.625183,1018.355042 848.026062,1020.863098 
	C848.300659,1022.386169 848.580627,1023.172363 848.860657,1023.958496 
	C848.857910,1222.752197 848.855286,1421.546021 848.852234,1620.339722 
	C848.852112,1627.736694 848.663696,1627.868286 841.367249,1628.011597 
	C826.223938,1628.308838 811.072327,1628.442627 795.941895,1629.071533 
	C778.239014,1629.807129 760.547241,1630.876221 742.865234,1632.026245 
	C724.668396,1633.209717 706.469788,1634.445312 688.307678,1636.060425 
	C669.025391,1637.775269 649.789185,1640.001953 630.525269,1641.930420 
	C616.669617,1643.317261 602.801697,1644.581543 588.136047,1645.976929 
	C588.136047,1643.940552 588.136047,1642.181152 588.136047,1640.421875 
	C588.136047,1189.344971 588.135864,738.268127 588.143311,287.191284 
	C588.143372,285.694794 588.253052,284.198273 588.510254,282.249115 
z"/>
</svg>