<svg version="1.1" id="Layer_1" xmlns="http://www.w3.org/2000/svg" xmlns:xlink="http://www.w3.org/1999/xlink" x="0px" y="0px"
	 width="100%" viewBox="0 0 512 512" enable-background="new 0 0 512 512" xml:space="preserve">

<path fill="#FF3E00" opacity="1.000000" stroke="none" 
	d="
M68.099594,158.014069 
	C71.638161,148.283356 77.552460,140.324371 83.260719,132.268463 
	C87.226585,126.671562 91.083496,120.953751 96.500458,116.143639 
	C97.357155,115.637589 97.488213,115.035271 97.805656,114.186172 
	C97.974632,113.930122 97.988396,113.992027 97.956772,113.989662 
	C98.192062,113.784592 98.442406,113.563278 98.828606,113.123047 
	C98.983543,112.925552 98.993210,112.992416 98.959457,112.993759 
	C99.193665,112.785187 99.446716,112.558716 99.844635,112.116226 
	C100.006828,111.919418 100.012268,112.006691 99.968636,112.009476 
	C100.190216,111.793152 100.443352,111.560951 100.848480,111.116257 
	C101.014526,110.918999 101.022057,111.014839 100.974152,111.018723 
	C101.225906,110.775391 101.493805,110.497261 101.886452,109.944962 
	C104.735687,106.908234 107.432632,104.118889 110.412537,101.184952 
	C111.031258,100.846016 111.344887,100.620865 111.827942,100.146767 
	C112.019493,99.928642 112.011429,100.018990 111.966248,100.015060 
	C112.186676,99.795898 112.438309,99.565392 112.839767,99.122650 
	C113.003571,98.925667 112.997429,98.998161 112.961182,98.995056 
	C113.192169,98.786316 113.442558,98.561890 113.834122,98.121643 
	C113.992142,97.924622 113.993263,97.989487 113.961449,97.983154 
	C114.412231,97.576988 115.035240,97.514557 115.791061,97.060928 
	C124.429604,88.874397 133.568207,81.890770 143.440674,75.733513 
	C153.716156,69.324921 164.423370,63.808689 175.570572,59.251801 
	C184.018173,55.798496 192.770248,53.104099 201.655487,50.736298 
	C209.061188,48.762779 216.416336,46.940807 224.426697,45.984657 
	C226.871185,44.966316 229.044754,45.777870 231.496979,45.314796 
	C232.044907,45.120636 232.219101,45.067570 232.662445,44.967827 
	C235.627853,44.006516 238.418594,44.759026 241.539719,44.312820 
	C242.648865,44.113544 243.367767,44.056992 244.448669,44.006100 
	C252.568848,42.898342 260.365631,43.741989 268.597595,43.728714 
	C269.504242,43.943993 269.955353,43.982719 270.738129,44.095085 
	C274.150543,44.915775 277.289093,44.257030 280.759613,44.760933 
	C281.130829,44.969810 281.608917,45.018074 281.837097,45.093224 
	C284.159943,45.875912 286.335602,45.277927 288.801514,45.772667 
	C289.146729,45.980492 289.586639,46.017372 289.794861,46.090588 
	C291.459167,46.827160 293.024933,46.305202 294.838989,46.785576 
	C300.669464,48.321857 306.217590,49.509720 311.677429,51.017357 
	C321.820984,53.818336 332.238464,55.540573 341.512512,61.354912 
	C344.491699,63.222717 348.691711,64.039787 352.263123,65.600136 
	C364.837524,71.093857 375.708862,79.285606 386.552582,87.425835 
	C391.673492,91.270004 397.542175,94.382301 401.175781,100.126411 
	C402.050507,101.509270 402.699066,101.885925 401.319427,103.259567 
	C382.187408,122.308685 363.090881,141.393753 344.068268,160.551987 
	C342.195404,162.438171 341.301086,161.650879 339.671204,160.288895 
	C322.083771,145.592194 302.263275,135.546371 279.480682,131.780319 
	C279.196747,131.733383 278.960449,131.398544 278.344391,131.016769 
	C276.554413,130.179382 275.017914,130.679504 273.225281,130.245514 
	C272.444977,130.029404 271.987732,130.003937 271.195374,129.903076 
	C266.842194,129.080521 262.780304,129.742569 258.350525,129.275879 
	C257.543365,129.070602 257.133728,129.040359 256.416077,129.028656 
	C252.081497,130.084839 247.976242,129.185928 243.507187,129.686005 
	C242.645264,129.889801 242.198196,129.950394 241.412918,130.043152 
	C239.695648,130.891693 238.165619,130.305695 236.382782,130.688141 
	C228.051102,133.327499 219.809189,134.887772 211.945328,137.913986 
	C197.891846,143.322159 185.097015,150.704147 173.533081,160.844193 
	C172.899704,161.189911 172.592163,161.434540 172.154282,161.969131 
	C171.995743,162.510315 171.873444,162.736038 171.424957,162.935059 
	C170.914932,163.182373 170.619431,163.410416 170.159637,163.874329 
	C169.978851,164.088638 170.009323,163.997162 170.055054,164.012436 
	C169.821716,164.193359 169.532043,164.337708 169.228363,164.703613 
	C168.034561,166.231384 166.844177,167.516312 165.346497,168.955017 
	C164.749329,169.293915 164.495255,169.519333 164.131729,169.996429 
	C163.986938,170.516495 163.854111,170.749100 163.384308,170.952271 
	C162.881989,171.203476 162.598495,171.427170 162.153046,171.875397 
	C161.975937,172.080734 161.974686,171.976074 162.027023,171.975281 
	C161.791122,172.212158 161.529465,172.476166 161.139099,172.998932 
	C152.240860,183.913834 144.637192,195.302994 139.080566,208.432755 
	C135.456787,210.697327 133.152054,208.377243 130.808548,206.639557 
	C112.957680,193.403275 94.859848,180.501770 77.131554,167.101105 
	C73.794518,164.578674 69.322067,163.127319 68.099594,158.014069 
z"/>
<path fill="#4DAF50" opacity="1.000000" stroke="none" 
	d="
M240.787018,383.755005 
	C241.317978,383.970001 241.532791,383.997162 242.061584,384.107422 
	C246.690796,384.888916 251.042252,384.275146 255.748535,384.760986 
	C256.543365,384.971252 256.958893,384.969299 257.681519,384.913971 
	C261.979279,384.037781 266.021240,384.753632 270.437805,384.317657 
	C271.316986,384.110016 271.787842,384.044098 272.613098,383.930542 
	C274.344971,383.142487 275.849152,383.680817 277.613708,383.310547 
	C277.949707,383.165222 278.417786,383.012787 278.661377,382.977661 
	C280.200256,382.104004 281.662659,382.692078 283.353241,382.320740 
	C302.272095,377.936554 318.840759,369.398346 334.531921,358.235168 
	C340.414764,359.993011 344.250549,364.345184 348.514343,367.955414 
	C365.625244,382.443420 382.729126,396.939484 399.917816,411.335388 
	C400.564667,411.877136 401.085968,412.512024 401.688416,413.537567 
	C392.452209,423.483002 381.597809,431.261536 370.248932,438.380981 
	C347.951447,452.368744 323.880554,461.916565 298.039673,466.967926 
	C297.397308,467.093475 296.710541,466.991913 295.631897,466.978424 
	C293.836823,467.946564 292.239075,467.289734 290.406281,467.689209 
	C290.051758,467.833649 289.646301,467.967590 289.432800,467.967041 
	C287.191895,469.072662 284.984741,468.207642 282.508514,468.685394 
	C281.970642,468.876160 281.811371,468.925415 281.402710,468.993164 
	C277.868073,470.109039 274.475769,469.171082 270.753265,469.674622 
	C270.148621,469.865814 269.942841,469.920074 269.419861,470.009888 
	C261.333008,471.013580 253.534714,470.307281 245.310104,470.235168 
	C244.387589,470.005798 243.905823,469.986633 243.070602,469.891022 
	C239.734070,469.105011 236.697784,469.727722 233.324890,469.277588 
	C232.952484,469.100800 232.464722,468.992310 232.227356,468.914368 
	C230.253616,468.168243 228.455399,468.613892 226.379303,468.678497 
	C225.718033,468.659546 225.363388,468.503876 224.825882,468.102661 
	C223.006424,467.121643 221.261368,467.710266 219.268784,467.260193 
	C205.836258,465.633636 193.414230,461.544617 181.132324,457.008972 
	C165.848282,451.364655 151.503159,443.757721 137.887024,434.905731 
	C129.507950,429.458466 121.560188,423.296722 114.198135,415.963043 
	C113.359505,414.984467 112.752731,414.202240 111.946373,413.249847 
	C111.676445,413.127319 111.880989,412.995789 111.946686,413.098083 
	C111.657936,412.639496 111.080460,412.512268 110.230774,412.262665 
	C108.041710,410.290161 106.108940,408.470978 104.042587,406.347290 
	C103.739723,405.761017 103.525917,405.518494 103.070488,405.172241 
	C102.548531,405.012909 102.297104,404.868591 102.056458,404.380890 
	C101.586441,403.462708 101.211128,402.732605 100.184395,402.171753 
	C99.931641,402.000488 99.998955,402.003174 99.994072,402.036499 
	C99.798531,401.802917 99.580620,401.560455 99.139374,401.195801 
	C98.943298,401.049133 99.002045,401.007355 98.974152,401.032227 
	C98.801155,400.875061 98.656036,400.693024 98.238167,400.292908 
	C97.965424,400.074829 97.910599,400.074615 97.913658,400.047363 
	C97.559723,399.559448 97.513161,398.984467 97.134796,398.265015 
	C87.569565,389.076782 80.618164,378.249054 73.777260,367.363495 
	C71.273895,363.380035 69.248375,359.096313 67.027626,354.595062 
	C67.002083,351.022949 68.988838,349.200287 71.354568,347.398895 
	C90.964867,332.466888 110.414200,317.325104 129.953369,302.300232 
	C131.747833,300.920349 133.489609,299.089142 136.500473,300.235229 
	C140.977081,308.367798 144.270599,316.755402 149.069107,324.406708 
	C152.303513,329.564056 156.111252,334.272583 159.843628,339.452698 
	C160.181839,340.066498 160.397720,340.367401 160.854034,340.829773 
	C161.063263,341.013611 160.986969,341.007629 160.989899,340.969482 
	C161.209793,341.194702 161.441574,341.444397 161.882294,341.846375 
	C162.078278,342.010590 161.991348,342.017395 161.987854,341.973938 
	C162.206116,342.192474 162.439972,342.443176 162.880859,342.850586 
	C163.075684,343.018646 162.981720,343.019653 162.981079,342.972656 
	C163.202820,343.188782 163.437439,343.440460 163.880112,343.849121 
	C164.075912,344.017487 163.997147,343.982147 164.014862,343.942780 
	C164.210739,344.219238 164.383102,344.538208 164.819931,344.880798 
	C166.021744,345.743011 166.952347,346.585236 168.015717,347.714783 
	C168.314209,348.834442 168.904236,349.299103 169.845032,349.822144 
	C170.092590,349.969910 170.012390,349.997253 169.998779,349.957123 
	C170.201187,350.184479 170.433655,350.436951 170.875763,350.844238 
	C171.071350,351.011963 170.988327,351.012146 170.988144,350.970642 
	C171.204681,351.189514 171.434525,351.437744 171.869476,351.839905 
	C172.061584,352.005920 171.991867,352.000519 171.995193,351.965698 
	C172.209290,352.192749 172.436447,352.439606 172.870270,352.835846 
	C173.062897,352.998077 172.996826,353.008301 172.995422,352.974915 
	C173.228226,353.228394 173.492599,353.484528 174.020874,353.855896 
	C179.496246,359.885040 186.524445,363.462036 192.939545,367.657867 
	C200.935928,372.887909 209.785599,376.880463 219.085388,379.486237 
	C224.162796,380.908905 229.368973,381.871948 234.948029,383.115234 
	C237.037491,383.835358 238.783966,383.301147 240.787018,383.755005 
z"/>
<path fill="#1976D2" opacity="1.000000" stroke="none" 
	d="
M402.047974,413.567017 
	C400.005524,414.563965 398.668793,413.607758 397.355988,412.495880 
	C377.016052,395.268799 356.668060,378.051208 336.344849,360.804413 
	C335.745728,360.295990 335.396088,359.493561 334.888977,358.483643 
	C336.952087,356.217346 339.056305,354.295654 341.439453,352.227295 
	C342.067566,351.912079 342.369080,351.682281 342.815002,351.174194 
	C343.014374,350.966492 343.021667,351.022003 342.994202,351.016541 
	C343.207062,350.791016 343.441010,350.564362 343.840210,350.157288 
	C344.011780,349.983337 344.016357,350.018158 343.999207,350.014252 
	C344.214905,349.784851 344.445190,349.556824 344.841614,349.151184 
	C345.010284,348.976166 345.021729,349.018494 345.000000,349.015656 
	C345.214233,348.785736 345.446991,348.555389 345.843994,348.142090 
	C346.011475,347.962433 346.020233,348.020325 345.991272,348.016113 
	C346.206482,347.791840 346.442841,347.563660 346.840271,347.147919 
	C347.009247,346.968506 347.018158,347.019104 346.993164,347.013245 
	C347.208832,346.789185 347.442413,346.563599 347.839355,346.156677 
	C348.009766,345.982635 348.014984,346.016327 347.998352,346.012573 
	C348.215759,345.783722 348.446808,345.555573 348.844055,345.149170 
	C349.013245,344.973999 349.024353,345.021942 349.000000,345.018555 
	C349.210907,344.788605 349.443268,344.559113 349.843201,344.150818 
	C350.013733,343.975006 350.020996,344.023285 349.997223,344.017761 
	C350.209900,343.788940 350.442169,343.561310 350.840973,343.155182 
	C351.011719,342.980988 351.019897,343.020264 351.000122,343.017029 
	C351.252014,342.759247 351.503479,342.485962 351.902344,341.971619 
	C362.662476,329.718231 370.666138,316.135529 376.708618,300.991180 
	C377.119751,300.646790 377.214172,300.498047 377.119629,300.164490 
	C376.930664,299.979706 377.026459,299.967163 377.032928,300.015015 
	C375.349030,298.996307 373.471497,299.530273 371.690735,299.526733 
	C333.809479,299.451263 295.928040,299.580475 257.606689,299.218903 
	C257.121216,271.308899 257.075836,243.619476 257.098511,215.465897 
	C258.046417,214.353577 259.071075,214.505463 260.056183,214.505966 
	C322.766907,214.537903 385.477661,214.421448 448.641449,214.765381 
	C449.094543,214.971375 448.998138,215.016098 448.975708,214.967926 
	C453.597015,216.243179 458.336884,215.216141 463.026337,215.463516 
	C464.959167,215.565475 466.738281,215.488998 466.686096,218.601959 
	C466.829834,219.024673 466.965729,219.454773 467.010559,219.675797 
	C467.843658,221.019653 467.324677,222.328125 467.701599,223.878342 
	C467.832153,224.228760 467.933197,224.506195 467.949432,224.652924 
	C469.087372,226.851013 468.197449,229.084167 468.688538,231.588486 
	C468.832489,231.971436 468.949188,232.419312 468.985718,232.647827 
	C470.089355,236.085617 469.191650,239.399261 469.690063,243.030807 
	C469.885590,243.665375 469.932159,243.915802 470.053833,244.540833 
	C470.928558,252.658401 470.347778,260.419922 470.241882,268.614899 
	C470.016357,269.256836 469.991028,269.456238 469.900940,269.950073 
	C469.061646,273.617279 469.765656,277.047729 469.217285,280.803345 
	C468.996399,281.168793 468.953156,281.650787 468.891418,281.884735 
	C468.136322,284.152466 468.697937,286.261536 468.292969,288.677368 
	C465.384430,291.379059 466.751831,295.008514 466.394928,297.632263 
	C462.058502,329.512451 448.365936,357.305237 430.183228,383.182617 
	C422.271606,394.442322 413.270691,404.846466 402.047974,413.567017 
z"/>
<path fill="#FFC107" opacity="1.000000" stroke="none" 
	d="
M136.885468,300.057159 
	C113.713142,318.178802 90.604073,335.950775 67.272705,353.981689 
	C58.160511,339.580841 53.076359,323.442596 49.061512,306.955078 
	C46.245075,295.389038 44.524582,283.655090 43.762161,271.700104 
	C43.341530,265.104553 42.829372,258.507660 43.075039,251.940125 
	C44.053982,225.769730 48.914349,200.381485 58.937412,176.061127 
	C61.475262,169.903168 64.633331,164.073074 67.783142,157.859940 
	C89.103035,173.028030 110.096191,188.416870 131.111603,203.775253 
	C133.380096,205.433075 135.777573,206.914383 138.467804,208.609894 
	C131.191391,228.015106 128.658691,248.085800 130.090271,268.626312 
	C130.831284,279.258240 133.303101,289.646454 136.885468,300.057159 
z"/>

</svg>